<svg xmlns="http://www.w3.org/2000/svg" width="800" height="450" viewBox="0 0 800 450">
  <rect width="800" height="450" fill="#0f172a" />
  <rect x="50" y="50" width="700" height="350" rx="10" ry="10" fill="#1e293b" stroke="#3b82f6" stroke-width="2" />
  
  <!-- Header -->
  <rect x="50" y="50" width="700" height="60" rx="10" ry="10" fill="#1e293b" />
  <text x="400" y="90" font-family="Arial" font-size="24" fill="#ffffff" text-anchor="middle">Neonphoto Editor</text>
  
  <!-- Main content area -->
  <rect x="50" y="120" width="450" height="280" rx="5" ry="5" fill="#0f172a" stroke="#3b82f6" stroke-width="1" />
  
  <!-- Sample image -->
  <rect x="70" y="140" width="410" height="230" rx="5" ry="5" fill="#1e293b" />
  <circle cx="275" cy="255" r="80" fill="#3b82f6" opacity="0.3" />
  <text x="275" y="265" font-family="Arial" font-size="24" fill="#ffffff" text-anchor="middle">Sample Image</text>
  
  <!-- Controls panel -->
  <rect x="520" y="120" width="230" height="280" rx="5" ry="5" fill="#1e293b" stroke="#3b82f6" stroke-width="1" />
  
  <!-- Text elements -->
  <text x="635" y="150" font-family="Arial" font-size="18" fill="#ffffff" text-anchor="middle">Text Elements</text>
  <rect x="540" y="160" width="190" height="40" rx="5" ry="5" fill="#0f172a" />
  <text x="635" y="185" font-family="Arial" font-size="14" fill="#ffffff" text-anchor="middle">Enter text...</text>
  
  <!-- Font upload button -->
  <rect x="540" y="210" width="190" height="30" rx="5" ry="5" fill="#0f172a" stroke="#3b82f6" stroke-width="1" />
  <text x="635" y="230" font-family="Arial" font-size="14" fill="#ffffff" text-anchor="middle">Upload Font</text>
  
  <!-- Footer -->
  <rect x="50" y="410" width="700" height="30" rx="5" ry="5" fill="#1e293b" />
  <text x="400" y="430" font-family="Arial" font-size="12" fill="#ffffff" text-anchor="middle">© 2023 Neonphoto Editor - Create stunning photo effects</text>
</svg> 